<svg xmlns="http://www.w3.org/2000/svg" height="40px" viewBox="0 -960 960 960" width="40px" fill="#592da0"><path d="M324-111.5Q251-143 197-197t-85.5-127Q80-397 80-480q0-137.33 83.33-244.83 83.34-107.5 216.67-142.5V-796q-104.33 32.33-168.83 119.5-64.5 87.17-64.5 196.5 0 139.33 97 236.33t236.33 97q139.33 0 236.33-97t97-236.33q0-109.33-64.5-196.5T580-796v-71.33q133.33 35 216.67 142.5Q880-617.33 880-480q0 83-31.5 156T763-197q-54 54-127 85.5T480-80q-83 0-156-31.5Zm156-217.83-200-200L326.67-576l120 119.67v-423h66.66v423l120-119.67L680-529.33l-200 200Z"/></svg>